<?xml version="1.0" standalone="no"?>
<!DOCTYPE svg PUBLIC "-//W3C//DTD SVG 20010904//EN"
 "http://www.w3.org/TR/2001/REC-SVG-20010904/DTD/svg10.dtd">
<svg version="1.0" xmlns="http://www.w3.org/2000/svg"
 width="888.000000pt" height="888.000000pt" viewBox="0 0 888.000000 888.000000"
 preserveAspectRatio="xMidYMid meet">
<metadata>
Created by potrace 1.14, written by Peter Selinger 2001-2017
</metadata>
<g transform="translate(0.000000,888.000000) scale(0.100000,-0.100000)"
fill="#000000" stroke="none">
<path d="M6248 7675 c-2 -1 -28 -5 -58 -9 -59 -7 -77 -10 -100 -19 -8 -3 -28
-8 -45 -12 -41 -9 -151 -62 -205 -99 -199 -135 -324 -395 -330 -686 -2 -91 7
-85 -142 -83 -73 1 -140 0 -148 -3 -13 -3 -15 -41 -14 -266 1 -145 2 -265 3
-268 1 -3 68 -5 149 -5 l149 1 -1 -976 c-1 -536 1 -986 5 -999 l5 -25 267 0
c147 -1 275 2 284 5 13 4 16 20 16 72 0 37 -3 70 -6 73 -3 3 -3 12 -1 18 9 23
10 97 2 102 -5 3 -6 10 -2 15 8 13 9 92 2 104 -3 6 -2 19 1 29 4 11 4 39 1 63
-4 23 -4 43 -1 43 8 0 5 135 -3 149 -4 6 -4 11 1 11 10 0 9 133 -1 149 -4 6
-4 11 1 11 10 0 9 133 -1 149 -4 6 -4 11 1 11 6 0 9 292 2 310 -1 3 0 10 1 15
5 24 3 95 -2 101 -4 3 -4 12 -2 18 9 23 10 97 2 102 -5 3 -6 10 -2 15 8 13 9
92 2 104 -3 6 -2 19 1 29 4 11 4 39 1 63 -4 23 -4 43 -1 43 3 0 5 44 5 98 l-2
97 452 0 451 0 0 -998 c0 -879 2 -997 15 -998 104 -7 553 -2 558 6 9 14 8 47
-1 68 -4 9 -4 17 1 17 9 0 8 52 -1 67 -3 5 -2 15 2 22 5 7 5 30 1 51 -4 21 -3
43 1 47 4 4 4 25 0 45 -5 20 -6 39 -3 42 8 8 6 181 -2 195 -4 6 -3 11 1 11 10
0 9 52 0 67 -3 5 -2 15 2 22 5 7 5 30 1 51 -4 21 -3 43 1 47 4 4 4 25 0 45 -5
20 -6 39 -3 42 8 8 6 181 -2 195 -4 6 -3 11 1 11 10 0 9 52 0 67 -3 5 -2 15 2
22 5 7 5 30 1 51 -4 21 -3 43 1 47 4 4 4 25 0 45 -5 20 -6 39 -3 42 8 8 6 181
-2 195 -4 6 -3 11 1 11 10 0 9 52 0 67 -3 5 -2 15 2 22 5 7 5 30 1 51 -4 21
-3 43 1 47 4 4 4 25 0 45 -5 20 -6 40 -3 43 3 3 5 47 4 98 l-1 92 172 0 172 0
3 271 2 271 -172 0 -173 0 -1 45 c0 24 -4 50 -8 56 -4 7 -3 12 1 12 10 0 9 52
0 67 -3 5 -2 15 2 22 5 7 5 30 1 51 -4 21 -3 43 1 47 4 4 4 25 0 45 -5 20 -6
39 -3 42 8 8 6 181 -2 195 -4 6 -3 11 1 11 10 0 9 52 0 67 -3 5 -2 15 2 22 5
7 5 30 1 52 -4 22 -5 41 -1 43 5 3 5 63 1 128 0 4 -128 7 -285 7 l-285 0 -1
-32 c0 -18 -1 -222 -1 -454 l-1 -423 -21 -1 c-11 0 -214 -1 -451 -1 l-430 -1
-1 37 c-1 44 17 116 28 116 4 0 8 6 8 14 0 22 66 82 118 107 37 18 67 24 141
26 52 1 96 5 99 8 6 6 10 573 4 591 -2 8 -41 12 -117 12 -62 0 -115 -1 -117
-3z"/>
<path d="M3909 6855 c-3 -2 -46 -5 -97 -6 -51 -1 -92 -5 -92 -10 0 -5 -7 -6
-15 -3 -37 15 -303 -68 -405 -125 -199 -113 -329 -231 -452 -412 -100 -147
-184 -348 -212 -509 -3 -19 -8 -46 -11 -60 -21 -98 -21 -362 -1 -470 3 -14 7
-41 10 -62 3 -20 12 -58 21 -85 8 -26 20 -64 26 -83 37 -122 153 -336 234
-430 96 -112 226 -227 320 -283 99 -59 276 -131 352 -143 19 -3 45 -8 57 -10
90 -18 308 -25 391 -12 22 3 61 9 87 13 37 6 45 11 41 24 -4 12 -3 13 5 2 13
-18 50 -9 177 42 82 33 220 109 269 148 164 131 290 283 375 453 41 81 95 211
99 236 0 3 3 12 6 20 4 12 18 76 32 150 34 167 21 457 -27 634 -6 23 -12 46
-14 51 -1 6 -6 19 -10 30 -4 11 -21 53 -37 94 -16 41 -41 97 -57 125 -55 100
-73 131 -80 136 -3 3 -26 31 -50 64 -193 259 -531 446 -853 472 -40 3 -75 7
-79 10 -3 2 -8 2 -10 -1z m116 -600 c192 -44 357 -175 452 -360 46 -89 65
-148 88 -275 8 -39 8 -194 1 -255 -14 -118 -75 -272 -149 -375 -54 -75 -214
-209 -231 -193 -3 4 -6 1 -6 -5 0 -7 -8 -12 -18 -12 -10 0 -22 -4 -28 -9 -5
-5 -34 -16 -64 -25 -325 -96 -660 58 -806 370 -57 122 -77 212 -78 359 -1 137
2 162 28 263 70 266 274 469 520 518 10 2 20 5 22 7 12 12 208 6 269 -8z"/>
<path d="M1537 6843 c-3 -2 -24 -6 -48 -8 -198 -22 -392 -129 -504 -281 -17
-21 -32 -41 -35 -44 -18 -18 -89 -161 -90 -180 0 -9 -4 -20 -10 -26 -5 -5 -17
-52 -26 -104 -15 -91 -15 -227 1 -305 25 -125 86 -237 179 -331 114 -114 232
-177 506 -268 175 -58 266 -103 312 -154 36 -40 64 -111 54 -138 -3 -7 -1 -16
4 -19 14 -9 -19 -127 -47 -165 -32 -42 -47 -54 -92 -76 -126 -61 -308 -12
-383 104 -26 40 -50 107 -52 144 l-1 23 -289 2 -288 2 6 -72 c19 -232 107
-424 266 -587 9 -9 34 -29 55 -45 22 -17 49 -38 59 -47 10 -10 23 -15 27 -12
4 2 10 0 14 -5 13 -22 155 -77 246 -97 117 -24 333 -21 405 6 13 5 24 7 24 5
0 -9 146 48 200 78 69 38 121 77 185 140 52 51 145 183 145 205 0 6 5 12 10
12 6 0 10 5 10 12 0 6 11 39 24 72 13 34 27 75 30 91 2 17 8 41 11 55 4 14 9
84 11 155 3 122 1 144 -31 287 -2 10 -22 54 -45 97 -95 182 -279 306 -570 382
-41 11 -86 22 -99 25 -90 19 -208 73 -256 118 -55 51 -81 152 -57 216 10 26
12 34 12 48 0 16 66 75 100 90 71 30 170 19 227 -24 35 -26 55 -59 76 -121
l12 -37 284 0 283 -1 -6 65 c-9 95 -39 206 -82 296 -20 44 -40 81 -43 84 -4 3
-18 21 -31 40 -96 137 -265 243 -450 281 -53 11 -236 20 -243 12z"/>
<path d="M7537 3954 c-1 -1 -31 -4 -67 -7 -180 -17 -379 -90 -544 -201 -73
-50 -218 -180 -256 -231 -8 -11 -41 -52 -72 -91 -32 -39 -58 -76 -58 -83 0 -6
-4 -11 -9 -11 -5 0 -11 -8 -14 -17 -3 -10 -19 -40 -35 -68 -15 -27 -41 -81
-56 -120 -16 -38 -32 -79 -37 -90 -9 -21 -45 -159 -54 -210 -17 -90 -22 -322
-11 -422 19 -155 77 -340 145 -463 13 -25 29 -54 35 -65 86 -161 277 -358 453
-468 118 -74 283 -140 403 -161 122 -22 287 -28 380 -14 81 13 91 15 140 28
25 7 50 13 55 14 26 5 91 29 100 37 5 5 17 9 27 9 10 0 18 5 18 10 0 6 3 9 8
8 11 -4 172 84 172 94 0 4 5 8 11 8 14 0 46 25 132 103 65 59 237 273 237 295
0 6 4 12 8 14 13 5 91 155 85 162 -4 3 -1 6 5 6 7 0 12 4 12 10 0 5 -10 10
-22 9 -53 -1 -225 0 -243 1 -11 1 -27 1 -35 1 -64 -2 -134 0 -138 3 -2 3 -14
1 -26 -3 -11 -4 -32 -5 -46 -1 -14 4 -37 3 -52 -1 -16 -4 -30 -3 -34 2 -3 5
-10 6 -16 3 -6 -4 -29 -6 -50 -6 -27 1 -46 -4 -60 -18 -12 -11 -40 -32 -62
-47 -23 -15 -43 -30 -46 -33 -13 -13 -122 -61 -185 -81 -104 -34 -272 -32
-385 3 -19 6 -39 14 -45 19 -5 5 -17 9 -27 9 -10 0 -18 5 -18 10 0 6 -5 10
-11 10 -32 0 -170 121 -233 204 -33 43 -96 156 -96 171 0 3 431 5 959 5 l959
0 6 33 c16 86 20 144 20 282 1 140 -9 269 -20 287 -3 5 -7 18 -10 31 -28 152
-119 348 -228 497 -217 293 -516 477 -856 526 -32 4 -209 11 -213 8z m268
-618 c141 -40 266 -130 368 -265 46 -62 97 -160 110 -213 l7 -27 -680 0 c-374
0 -680 2 -680 5 0 3 10 24 22 47 12 23 23 47 24 54 2 11 40 67 62 91 6 7 12
17 12 21 0 7 125 135 152 156 59 45 179 108 233 122 126 33 274 37 370 9z"/>
<path d="M5175 3922 c-3 -3 -17 -7 -33 -8 -15 -2 -56 -12 -91 -24 -252 -80
-425 -261 -512 -535 -18 -56 -22 -98 -24 -210 -2 -77 0 -144 3 -150 7 -10 7
-13 17 -58 27 -133 144 -293 280 -383 48 -32 158 -91 185 -99 3 -1 16 -6 30
-12 14 -6 94 -34 178 -62 307 -103 375 -163 373 -327 -1 -100 -55 -186 -141
-227 -70 -33 -197 -30 -268 6 -62 31 -113 80 -141 134 -10 21 -19 40 -19 43
-7 62 -17 90 -31 91 -9 0 -135 1 -281 1 l-265 1 1 -59 c3 -160 58 -324 157
-474 39 -59 175 -192 218 -214 19 -9 49 -26 68 -37 37 -22 99 -47 146 -59 6
-1 33 -9 60 -18 54 -17 295 -23 373 -10 259 44 465 187 591 411 24 43 69 151
76 182 2 11 10 49 18 85 8 36 14 93 13 128 0 34 2 62 6 62 4 0 6 6 3 13 -2 6
-6 41 -9 77 -15 175 -68 293 -186 410 -69 69 -191 150 -225 150 -8 0 -15 4
-17 8 -5 15 -233 86 -373 117 -42 9 -165 71 -196 98 -14 12 -36 44 -48 71 -42
85 -17 208 52 260 133 98 329 29 350 -124 l4 -25 288 -3 288 -2 -6 62 c-8 76
-14 108 -28 145 -6 16 -9 28 -8 28 6 0 -26 85 -48 129 -53 106 -127 194 -218
263 -90 68 -167 102 -317 141 -38 10 -283 13 -293 4z"/>
<path d="M22 3842 c-17 -3 -22 -8 -17 -20 13 -33 97 -277 100 -292 2 -8 36
-107 75 -220 39 -113 73 -212 75 -220 2 -8 54 -161 115 -340 130 -381 252
-740 316 -930 25 -74 49 -144 53 -155 15 -35 103 -299 110 -330 l7 -30 181 -3
181 -2 8 32 c4 18 9 36 10 41 1 4 3 9 4 12 1 3 4 10 5 15 1 6 3 11 5 13 1 1 3
9 5 17 4 22 54 208 70 260 21 72 74 265 78 286 2 10 7 26 10 34 3 8 20 67 37
130 32 114 37 134 46 177 2 12 9 35 15 50 6 16 12 35 14 43 4 17 25 96 85 310
22 80 43 156 46 170 13 62 28 36 63 -105 5 -22 21 -80 36 -130 14 -49 27 -97
29 -105 8 -34 28 -107 37 -135 5 -16 18 -64 29 -105 27 -101 33 -122 81 -290
23 -80 43 -155 45 -167 2 -12 9 -35 15 -50 6 -16 10 -28 9 -28 -1 0 3 -20 10
-45 7 -25 14 -56 17 -69 2 -14 6 -28 9 -32 5 -9 73 -254 77 -279 9 -51 16 -53
277 -51 l95 1 22 68 c12 37 69 207 127 377 59 171 108 317 110 325 3 8 50 148
106 310 56 162 102 300 104 305 2 6 6 24 11 40 4 17 11 35 15 40 3 6 12 30 19
54 7 25 18 56 24 70 5 14 11 31 12 37 3 11 111 333 198 584 27 80 50 150 52
155 1 6 5 17 8 25 31 81 47 135 44 144 -5 13 -550 16 -563 3 -4 -4 -9 -13 -10
-20 -1 -7 -11 -39 -22 -72 -11 -33 -41 -127 -67 -210 -26 -82 -49 -157 -52
-165 -4 -8 -7 -18 -8 -22 -2 -5 -3 -9 -5 -10 -1 -2 -3 -11 -5 -20 -2 -10 -30
-102 -63 -205 -33 -104 -63 -199 -67 -213 -3 -14 -10 -34 -15 -45 -7 -16 -81
-253 -94 -300 -1 -5 -15 -50 -31 -100 -16 -49 -29 -93 -29 -97 -1 -11 -16 -22
-17 -12 -1 15 -12 59 -64 249 -9 33 -18 68 -20 77 -5 23 -95 369 -101 388 -3
8 -6 17 -6 20 -1 3 -14 55 -31 115 -16 61 -33 126 -37 145 -5 19 -18 71 -30
115 -12 44 -23 87 -25 95 -5 22 -44 167 -60 223 -8 26 -11 47 -8 47 3 0 0 6
-7 14 -6 8 -19 12 -28 9 -14 -6 -119 -8 -132 -3 -3 1 -8 2 -12 1 -27 -4 -226
-4 -233 1 -6 2 -21 2 -35 -3 -14 -4 -22 -7 -19 -8 3 -1 -7 -47 -23 -103 -15
-57 -30 -111 -33 -121 -22 -93 -67 -265 -72 -277 -3 -8 -7 -23 -8 -32 -2 -10
-3 -19 -5 -20 -1 -2 -3 -10 -5 -18 -2 -8 -33 -127 -69 -265 -88 -336 -100
-382 -136 -510 -16 -61 -30 -119 -30 -129 0 -33 -17 -6 -34 56 -10 35 -22 72
-26 83 -5 11 -29 88 -55 170 -25 83 -54 173 -63 200 -9 28 -17 52 -17 55 -1 3
-4 12 -8 20 -8 20 -88 281 -92 300 -2 8 -12 40 -23 70 -11 30 -20 57 -20 60 0
3 -3 12 -6 20 -3 8 -23 71 -45 140 -22 69 -52 165 -68 214 -22 70 -32 90 -48
92 -22 3 -90 5 -180 3 -33 0 -64 0 -70 1 -5 1 -35 1 -65 0 -127 -5 -190 -5
-193 0 -1 3 -12 4 -25 2z"/>
<path d="M3601 3835 c-5 -5 -8 -578 -8 -1272 l0 -1262 76 -3 c42 -2 171 -1
287 2 l210 5 0 1270 -1 1270 -278 0 c-177 0 -281 -3 -286 -10z"/>
</g>
</svg>
